<svg id="Camada_1" data-name="Camada 1" xmlns="http://www.w3.org/2000/svg" viewBox="0 0 98.12 98.12"><defs><style>.cls-1{fill:none;}.cls-2{fill:#fff;}</style></defs><title>facebookWhite</title><rect id="canvas_background" data-name="canvas background" class="cls-1" width="98.12" height="98.12"/><g id="svg_1" data-name="svg 1"><path id="svg_2" data-name="svg 2" class="cls-2" d="M72.09,0,59.62,0c-14,0-23,9.28-23,23.66v10.9H24a2,2,0,0,0-2,2V52.33a2,2,0,0,0,2,2H36.57V94.16a2,2,0,0,0,2,2H54.88a2,2,0,0,0,2-2V54.29H71.5a2,2,0,0,0,2-2V36.52a2,2,0,0,0-2-2H56.84V25.32c0-4.45,1.06-6.7,6.85-6.7h8.4a2,2,0,0,0,2-2V2A2,2,0,0,0,72.09,0Z" transform="translate(1 1)"/></g></svg>