<?xml version="1.0" standalone="no"?>
<!DOCTYPE svg PUBLIC "-//W3C//DTD SVG 20010904//EN"
 "http://www.w3.org/TR/2001/REC-SVG-20010904/DTD/svg10.dtd">
<svg version="1.0" xmlns="http://www.w3.org/2000/svg"
 width="348.000000pt" height="348.000000pt" viewBox="0 0 348.000000 348.000000"
 preserveAspectRatio="xMidYMid meet">
<metadata>
Created by potrace 1.11, written by Peter Selinger 2001-2013
</metadata>
<g transform="translate(0.000000,348.000000) scale(0.100000,-0.100000)"
fill="#000000" stroke="none">
<path d="M2793 2543 c-13 -2 -29 -13 -36 -23 -15 -21 -125 -24 -1927 -50 -404
-6 -755 -12 -780 -13 l-45 -2 115 -64 c512 -286 687 -417 762 -570 29 -58 33
-76 33 -146 0 -71 -4 -88 -36 -155 -20 -41 -57 -102 -82 -135 -55 -72 -154
-171 -163 -163 -11 11 17 77 34 81 9 3 -5 5 -33 6 -33 0 -45 -2 -36 -8 12 -8
12 -18 1 -71 -15 -71 -13 -68 -145 -173 -55 -44 -102 -82 -105 -85 -5 -6 2 -2
127 76 46 29 85 52 88 52 2 0 2 -7 -1 -15 -4 -8 -12 -15 -19 -15 -8 0 -17 -4
-20 -10 -4 -6 16 -10 52 -10 44 1 54 3 40 11 -22 13 -22 52 1 71 19 17 105 68
114 68 4 0 0 -26 -8 -57 -17 -72 -17 -96 -2 -91 7 3 18 29 26 59 12 51 54 110
68 97 3 -4 -1 -35 -8 -70 -21 -92 -5 -115 43 -61 13 15 16 21 6 14 -9 -8 -20
-11 -24 -7 -6 5 4 56 23 123 9 33 -19 39 -56 13 -23 -17 -30 -18 -30 -7 0 16
213 149 817 510 772 461 999 577 1133 577 20 0 44 -10 62 -25 16 -14 48 -28
70 -31 33 -6 43 -12 54 -40 8 -18 14 -43 14 -54 0 -11 2 -20 5 -20 10 0 525
260 525 266 0 26 -38 69 -78 87 -43 20 -62 21 -234 19 -168 -1 -191 0 -220 18
-36 20 -90 31 -125 23z"/>
<path d="M2615 2223 c-29 -7 -172 -105 -225 -153 l-45 -40 48 29 c137 84 246
54 309 -84 32 -69 31 -196 -1 -275 -47 -115 -165 -255 -331 -393 -26 -22 9 -3
85 45 383 242 615 291 886 189 29 -11 54 -19 56 -17 9 9 -76 67 -119 82 -26 8
-105 21 -177 29 -203 21 -237 49 -229 185 4 70 6 74 41 105 20 17 85 57 144
88 l108 57 -70 -7 c-100 -11 -184 -9 -228 6 -24 8 -63 39 -105 82 -67 69 -99
85 -147 72z"/>
<path d="M999 1331 c-16 -16 -32 -44 -36 -61 -3 -18 -12 -34 -19 -36 -46 -14
-49 -17 -23 -23 l26 -6 -24 -104 c-12 -57 -28 -110 -34 -117 -6 -8 -27 -14
-45 -14 -24 0 -34 -5 -34 -15 0 -22 43 -19 74 6 35 28 53 64 72 146 23 102 23
103 50 103 31 0 31 18 0 22 l-24 3 16 50 c16 47 19 50 51 50 19 0 36 6 38 13
9 26 -57 13 -88 -17z"/>
<path d="M2547 1330 c-14 -16 -28 -43 -32 -60 -4 -20 -13 -30 -25 -30 -45 0
-107 -100 -98 -160 4 -30 38 -39 58 -15 16 19 31 20 24 0 -10 -25 30 -17 57
11 24 26 24 26 2 15 -20 -10 -23 -9 -23 8 0 34 42 215 52 226 5 6 21 10 35 10
14 0 28 6 30 13 3 8 -6 12 -25 12 -21 0 -38 -9 -55 -30z m-52 -120 c8 -14 -14
-92 -32 -112 -25 -28 -43 -22 -43 12 0 61 54 134 75 100z"/>
<path d="M1903 1310 c-22 -9 -53 -57 -53 -84 0 -8 16 -33 35 -56 41 -49 44
-78 11 -109 -30 -28 -66 -24 -83 8 -13 27 -40 36 -60 19 -8 -6 -15 -9 -18 -6
-4 3 17 105 31 150 4 15 1 15 -33 6 -67 -18 -113 -76 -113 -143 0 -43 20 -54
55 -31 22 14 25 15 25 1 0 -19 20 -19 46 0 24 19 34 19 34 0 0 -8 11 -22 25
-31 33 -22 80 -12 117 23 40 38 38 80 -7 133 -19 23 -35 47 -35 54 0 24 32 56
55 56 24 0 42 -30 30 -49 -3 -5 -1 -12 4 -15 13 -8 20 68 7 76 -14 10 -46 9
-73 -2z m-179 -132 c-9 -46 -37 -92 -58 -96 -17 -4 -18 1 -14 42 6 51 30 86
59 86 15 0 17 -6 13 -32z"/>
<path d="M2938 1302 c-86 -57 -123 -200 -67 -261 11 -11 30 -23 43 -27 29 -7
81 18 96 46 15 28 2 25 -26 -5 -79 -86 -139 72 -71 188 43 74 108 81 117 12 4
-30 7 -35 13 -22 15 38 8 74 -15 81 -38 10 -62 7 -90 -12z"/>
<path d="M1311 1224 c-20 -25 -21 -26 -21 -5 0 28 -13 27 -47 -5 -15 -15 -20
-21 -10 -14 26 19 28 11 12 -55 -18 -75 -18 -98 -3 -93 7 3 19 30 26 62 12 46
22 63 53 88 22 17 39 35 39 40 0 18 -30 7 -49 -18z"/>
<path d="M1088 1217 c-34 -32 -55 -99 -42 -135 22 -62 111 -23 135 59 24 77
-38 127 -93 76z m56 -13 c21 -56 -11 -145 -47 -131 -22 8 -23 94 -1 125 18 26
39 29 48 6z"/>
<path d="M1382 1224 c-12 -8 -22 -20 -22 -26 0 -7 6 -6 15 2 19 16 19 7 1 -78
-9 -40 -10 -64 -4 -68 14 -9 25 12 33 63 6 43 47 104 60 91 4 -4 0 -39 -9 -79
-9 -39 -15 -74 -12 -76 12 -12 26 12 37 62 11 49 50 107 64 94 2 -3 -2 -29
-10 -59 -20 -75 -19 -100 3 -100 11 0 26 8 35 18 24 26 21 39 -3 17 -25 -23
-26 -9 -5 61 26 87 16 114 -31 79 -25 -19 -34 -19 -34 0 0 21 -17 19 -52 -6
l-30 -22 7 22 c8 26 -10 28 -43 5z"/>
<path d="M2074 1221 c-30 -19 -74 -91 -74 -123 0 -46 34 -64 60 -33 7 8 16 15
21 15 5 0 9 -7 9 -15 0 -8 5 -15 10 -15 16 0 60 31 60 42 0 6 -7 5 -15 -2 -9
-7 -18 -10 -21 -7 -5 5 5 63 22 134 5 19 2 23 -17 23 -13 0 -38 -9 -55 -19z
m36 -33 c0 -13 -9 -42 -20 -66 -14 -31 -25 -43 -37 -40 -40 8 -4 128 38 128
13 0 19 -7 19 -22z"/>
<path d="M2216 1219 c-15 -12 -25 -24 -22 -27 3 -2 12 1 21 8 19 16 19 6 0
-75 -17 -70 -9 -85 32 -65 16 8 31 16 36 18 4 2 7 -3 7 -12 0 -9 6 -16 13 -16
18 0 57 29 57 42 0 6 -9 3 -20 -7 -24 -22 -25 -15 -4 76 9 39 14 73 11 76 -13
12 -26 -11 -37 -61 -10 -51 -51 -108 -67 -93 -3 4 -1 30 5 58 14 60 15 99 3
99 -4 0 -20 -10 -35 -21z"/>
<path d="M2627 1210 c-52 -61 -61 -160 -16 -160 23 0 79 36 79 51 0 6 -10 3
-22 -5 -32 -23 -48 -20 -48 9 0 17 9 29 28 39 64 33 82 88 31 94 -19 2 -33 -5
-52 -28z m50 -7 c4 -12 -35 -53 -50 -53 -10 0 1 39 16 58 11 14 29 12 34 -5z"/>
<path d="M3118 1220 c-33 -25 -50 -68 -46 -115 8 -99 121 -53 135 56 10 68
-38 100 -89 59z m50 -49 c4 -54 -14 -101 -39 -101 -23 0 -34 37 -26 86 13 77
60 87 65 15z"/>
<path d="M3263 1214 c-15 -15 -20 -21 -10 -14 9 7 20 11 22 8 3 -3 -2 -38 -10
-78 -8 -40 -13 -75 -11 -77 12 -12 26 12 37 62 11 48 50 107 63 94 3 -2 -2
-33 -9 -69 -18 -81 -18 -93 -3 -88 6 2 19 33 29 68 15 56 38 90 60 90 4 0 1
-24 -7 -52 -17 -66 -18 -108 -1 -108 15 1 47 24 47 35 0 4 -7 2 -15 -5 -12
-10 -15 -9 -15 7 0 11 7 43 16 72 8 29 13 59 10 67 -7 18 -30 18 -46 -1 -7 -8
-16 -15 -21 -15 -5 0 -9 7 -9 15 0 21 -23 19 -54 -6 l-26 -20 0 20 c0 28 -13
26 -47 -5z"/>
<path d="M2733 1084 c-7 -18 11 -39 26 -30 17 11 13 46 -4 46 -9 0 -18 -7 -22
-16z"/>
</g>
</svg>
